<svg xmlns="http://www.w3.org/2000/svg" width="780" height="520" viewBox="0 0 780 520" font-family="system-ui,-apple-system,sans-serif">
<rect width="780" height="520" fill="white"/>
<text x="70" y="30" font-size="17" font-weight="600" fill="#111">Melanoma target ranking — AUGC gain curves</text>
<line x1="70.0" y1="56" x2="70.0" y2="460" stroke="#eee" stroke-width="1"/>
<line x1="70" y1="460.0" x2="510" y2="460.0" stroke="#eee" stroke-width="1"/>
<text x="70.0" y="480" font-size="11" text-anchor="middle" fill="#555">0</text>
<text x="60" y="464.0" font-size="11" text-anchor="end" fill="#555">0</text>
<line x1="180.0" y1="56" x2="180.0" y2="460" stroke="#eee" stroke-width="1"/>
<line x1="70" y1="359.0" x2="510" y2="359.0" stroke="#eee" stroke-width="1"/>
<text x="180.0" y="480" font-size="11" text-anchor="middle" fill="#555">0.25</text>
<text x="60" y="363.0" font-size="11" text-anchor="end" fill="#555">0.25</text>
<line x1="290.0" y1="56" x2="290.0" y2="460" stroke="#eee" stroke-width="1"/>
<line x1="70" y1="258.0" x2="510" y2="258.0" stroke="#eee" stroke-width="1"/>
<text x="290.0" y="480" font-size="11" text-anchor="middle" fill="#555">0.5</text>
<text x="60" y="262.0" font-size="11" text-anchor="end" fill="#555">0.5</text>
<line x1="400.0" y1="56" x2="400.0" y2="460" stroke="#eee" stroke-width="1"/>
<line x1="70" y1="157.0" x2="510" y2="157.0" stroke="#eee" stroke-width="1"/>
<text x="400.0" y="480" font-size="11" text-anchor="middle" fill="#555">0.75</text>
<text x="60" y="161.0" font-size="11" text-anchor="end" fill="#555">0.75</text>
<line x1="510.0" y1="56" x2="510.0" y2="460" stroke="#eee" stroke-width="1"/>
<line x1="70" y1="56.0" x2="510" y2="56.0" stroke="#eee" stroke-width="1"/>
<text x="510.0" y="480" font-size="11" text-anchor="middle" fill="#555">1</text>
<text x="60" y="60.0" font-size="11" text-anchor="end" fill="#555">1</text>
<rect x="70" y="56" width="440" height="404" fill="none" stroke="#333" stroke-width="1"/>
<text x="290.0" y="504" font-size="13" text-anchor="middle" fill="#333">fraction of pool scanned</text>
<text x="18" y="258.0" font-size="13" text-anchor="middle" fill="#333" transform="rotate(-90 18 258.0)">fraction of positives recovered</text>
<path d="M70.0,460.0 L510.0,56.0" fill="none" stroke="#999" stroke-width="1.5" stroke-dasharray="4 4"/>
<path d="M70.0,460.0 L74.9,434.8 L79.9,409.5 L84.8,384.2 L89.8,359.0 L94.7,359.0 L99.7,333.8 L104.6,308.5 L109.6,283.2 L114.5,283.2 L119.4,283.2 L124.4,283.2 L129.3,283.2 L134.3,283.2 L139.2,283.2 L144.2,258.0 L149.1,258.0 L154.0,258.0 L159.0,232.8 L163.9,232.8 L168.9,232.8 L173.8,232.8 L178.8,232.8 L183.7,232.8 L188.7,232.8 L193.6,232.8 L198.5,232.8 L203.5,232.8 L208.4,232.8 L213.4,232.8 L218.3,207.5 L223.3,207.5 L228.2,207.5 L233.1,207.5 L238.1,182.2 L243.0,182.2 L248.0,182.2 L252.9,182.2 L257.9,182.2 L262.8,182.2 L267.8,182.2 L272.7,182.2 L277.6,182.2 L282.6,182.2 L287.5,182.2 L292.5,157.0 L297.4,131.8 L302.4,131.8 L307.3,106.5 L312.2,106.5 L317.2,106.5 L322.1,106.5 L327.1,106.5 L332.0,106.5 L337.0,106.5 L341.9,106.5 L346.9,106.5 L351.8,106.5 L356.7,106.5 L361.7,106.5 L366.6,106.5 L371.6,106.5 L376.5,106.5 L381.5,106.5 L386.4,106.5 L391.3,106.5 L396.3,106.5 L401.2,106.5 L406.2,106.5 L411.1,106.5 L416.1,106.5 L421.0,81.2 L426.0,56.0 L430.9,56.0 L435.8,56.0 L440.8,56.0 L445.7,56.0 L450.7,56.0 L455.6,56.0 L460.6,56.0 L465.5,56.0 L470.4,56.0 L475.4,56.0 L480.3,56.0 L485.3,56.0 L490.2,56.0 L495.2,56.0 L500.1,56.0 L505.1,56.0 L510.0,56.0" fill="none" stroke="#0072B2" stroke-width="2.5"/>
<path d="M70.0,460.0 L74.9,434.8 L79.9,409.5 L84.8,384.2 L89.8,384.2 L94.7,359.0 L99.7,333.8 L104.6,308.5 L109.6,308.5 L114.5,308.5 L119.4,308.5 L124.4,308.5 L129.3,308.5 L134.3,283.2 L139.2,283.2 L144.2,258.0 L149.1,258.0 L154.0,258.0 L159.0,258.0 L163.9,258.0 L168.9,258.0 L173.8,258.0 L178.8,258.0 L183.7,232.8 L188.7,232.8 L193.6,232.8 L198.5,232.8 L203.5,232.8 L208.4,232.8 L213.4,232.8 L218.3,232.8 L223.3,207.5 L228.2,207.5 L233.1,207.5 L238.1,207.5 L243.0,207.5 L248.0,207.5 L252.9,182.2 L257.9,182.2 L262.8,182.2 L267.8,182.2 L272.7,182.2 L277.6,182.2 L282.6,182.2 L287.5,182.2 L292.5,182.2 L297.4,182.2 L302.4,182.2 L307.3,182.2 L312.2,182.2 L317.2,182.2 L322.1,182.2 L327.1,182.2 L332.0,157.0 L337.0,131.8 L341.9,131.8 L346.9,131.8 L351.8,131.8 L356.7,106.5 L361.7,106.5 L366.6,106.5 L371.6,106.5 L376.5,106.5 L381.5,81.2 L386.4,81.2 L391.3,81.2 L396.3,81.2 L401.2,81.2 L406.2,81.2 L411.1,81.2 L416.1,81.2 L421.0,81.2 L426.0,81.2 L430.9,81.2 L435.8,81.2 L440.8,81.2 L445.7,81.2 L450.7,81.2 L455.6,81.2 L460.6,81.2 L465.5,81.2 L470.4,81.2 L475.4,81.2 L480.3,81.2 L485.3,81.2 L490.2,56.0 L495.2,56.0 L500.1,56.0 L505.1,56.0 L510.0,56.0" fill="none" stroke="#D55E00" stroke-width="2.5"/>
<path d="M70.0,460.0 L74.9,415.1 L79.9,370.2 L84.8,325.3 L89.8,325.3 L94.7,325.3 L99.7,325.3 L104.6,325.3 L109.6,325.3 L114.5,325.3 L119.4,325.3 L124.4,325.3 L129.3,325.3 L134.3,325.3 L139.2,325.3 L144.2,280.4 L149.1,280.4 L154.0,280.4 L159.0,235.6 L163.9,235.6 L168.9,235.6 L173.8,235.6 L178.8,235.6 L183.7,235.6 L188.7,235.6 L193.6,235.6 L198.5,235.6 L203.5,235.6 L208.4,235.6 L213.4,235.6 L218.3,190.7 L223.3,190.7 L228.2,190.7 L233.1,190.7 L238.1,145.8 L243.0,145.8 L248.0,145.8 L252.9,145.8 L257.9,145.8 L262.8,145.8 L267.8,145.8 L272.7,145.8 L277.6,145.8 L282.6,145.8 L287.5,145.8 L292.5,145.8 L297.4,145.8 L302.4,145.8 L307.3,100.9 L312.2,100.9 L317.2,100.9 L322.1,100.9 L327.1,100.9 L332.0,100.9 L337.0,100.9 L341.9,100.9 L346.9,100.9 L351.8,100.9 L356.7,100.9 L361.7,100.9 L366.6,100.9 L371.6,100.9 L376.5,100.9 L381.5,100.9 L386.4,100.9 L391.3,100.9 L396.3,100.9 L401.2,100.9 L406.2,100.9 L411.1,100.9 L416.1,100.9 L421.0,100.9 L426.0,56.0 L430.9,56.0 L435.8,56.0 L440.8,56.0 L445.7,56.0 L450.7,56.0 L455.6,56.0 L460.6,56.0 L465.5,56.0 L470.4,56.0 L475.4,56.0 L480.3,56.0 L485.3,56.0 L490.2,56.0 L495.2,56.0 L500.1,56.0 L505.1,56.0 L510.0,56.0" fill="none" stroke="#0072B2" stroke-width="2.5" stroke-dasharray="6 4"/>
<path d="M70.0,460.0 L74.9,415.1 L79.9,370.2 L84.8,325.3 L89.8,325.3 L94.7,325.3 L99.7,280.4 L104.6,235.6 L109.6,235.6 L114.5,235.6 L119.4,235.6 L124.4,235.6 L129.3,235.6 L134.3,235.6 L139.2,235.6 L144.2,190.7 L149.1,190.7 L154.0,190.7 L159.0,190.7 L163.9,190.7 L168.9,190.7 L173.8,190.7 L178.8,190.7 L183.7,190.7 L188.7,190.7 L193.6,190.7 L198.5,190.7 L203.5,190.7 L208.4,190.7 L213.4,190.7 L218.3,190.7 L223.3,190.7 L228.2,190.7 L233.1,190.7 L238.1,190.7 L243.0,190.7 L248.0,190.7 L252.9,145.8 L257.9,145.8 L262.8,145.8 L267.8,145.8 L272.7,145.8 L277.6,145.8 L282.6,145.8 L287.5,145.8 L292.5,145.8 L297.4,145.8 L302.4,145.8 L307.3,145.8 L312.2,145.8 L317.2,145.8 L322.1,145.8 L327.1,145.8 L332.0,145.8 L337.0,145.8 L341.9,145.8 L346.9,145.8 L351.8,145.8 L356.7,100.9 L361.7,100.9 L366.6,100.9 L371.6,100.9 L376.5,100.9 L381.5,100.9 L386.4,100.9 L391.3,100.9 L396.3,100.9 L401.2,100.9 L406.2,100.9 L411.1,100.9 L416.1,100.9 L421.0,100.9 L426.0,100.9 L430.9,100.9 L435.8,100.9 L440.8,100.9 L445.7,100.9 L450.7,100.9 L455.6,100.9 L460.6,100.9 L465.5,100.9 L470.4,100.9 L475.4,100.9 L480.3,100.9 L485.3,100.9 L490.2,56.0 L495.2,56.0 L500.1,56.0 L505.1,56.0 L510.0,56.0" fill="none" stroke="#D55E00" stroke-width="2.5" stroke-dasharray="6 4"/>
<text x="534" y="62" font-size="11" font-weight="600" fill="#666">ranker × label set</text>
<line x1="534" y1="86" x2="560" y2="86" stroke="#0072B2" stroke-width="3"/>
<text x="568" y="90" font-size="11" fill="#222">claude_priors · preclinical  (AUGC 0.531)</text>
<line x1="534" y1="110" x2="560" y2="110" stroke="#D55E00" stroke-width="3"/>
<text x="568" y="114" font-size="11" fill="#222">opentargets_score · preclinical  (AUGC 0.452)</text>
<line x1="534" y1="134" x2="560" y2="134" stroke="#0072B2" stroke-width="3" stroke-dasharray="6 4"/>
<text x="568" y="138" font-size="11" fill="#222">claude_priors · phase2  (AUGC 0.506)</text>
<line x1="534" y1="158" x2="560" y2="158" stroke="#D55E00" stroke-width="3" stroke-dasharray="6 4"/>
<text x="568" y="162" font-size="11" fill="#222">opentargets_score · phase2  (AUGC 0.531)</text>
<line x1="534" y1="188" x2="560" y2="188" stroke="#999" stroke-width="3" stroke-dasharray="4 4"/>
<text x="568" y="192" font-size="11" fill="#222">random</text>
</svg>